<svg id="visual" viewBox="0 0 900 600" width="900" height="600" xmlns="http://www.w3.org/2000/svg" xmlns:xlink="http://www.w3.org/1999/xlink" version="1.1"><rect x="0" y="0" width="900" height="600" fill="#ffffff"></rect><defs><linearGradient id="grad1_0" x1="33.3%" y1="0%" x2="100%" y2="100%"><stop offset="20%" stop-color="#ffffff" stop-opacity="1"></stop><stop offset="80%" stop-color="#ffffff" stop-opacity="1"></stop></linearGradient></defs><defs><linearGradient id="grad2_0" x1="0%" y1="0%" x2="66.7%" y2="100%"><stop offset="20%" stop-color="#ffffff" stop-opacity="1"></stop><stop offset="80%" stop-color="#ffffff" stop-opacity="1"></stop></linearGradient></defs><g transform="translate(900, 0)"><path d="M0 324.5C-15.5 271.9 -30.9 219.3 -44.7 196C-58.5 172.6 -70.6 178.4 -88.9 184.7C-107.3 191 -132 197.8 -162.1 203.3C-192.3 208.8 -227.9 213 -253.7 202.3C-279.5 191.7 -295.4 166.2 -287.4 138.4C-279.4 110.6 -247.4 80.4 -249.6 57C-251.8 33.5 -288.1 16.8 -324.5 0L0 0Z" fill="#9edfff"></path></g><g transform="translate(0, 600)"><path d="M0 -324.5C30 -337.7 60 -350.9 72.2 -316.4C84.5 -281.8 79 -199.5 76.8 -159.5C74.6 -119.4 75.8 -121.6 113.5 -142.3C151.1 -163 225.3 -202.2 247.1 -197C268.8 -191.8 238.3 -142.3 237.9 -114.5C237.4 -86.8 267.2 -80.9 286.6 -65.4C306.1 -50 315.3 -25 324.5 0L0 0Z" fill="#9edfff"></path></g></svg>