<svg id="visual" viewBox="0 0 900 600" width="900" height="600" xmlns="http://www.w3.org/2000/svg" xmlns:xlink="http://www.w3.org/1999/xlink" version="1.1"><g stroke-width="1" stroke-linejoin="bevel"><path d="M415 322L332 338L408 405Z" fill="#6c6f71" stroke="#6c6f71"></path><path d="M332 338L291 402L408 405Z" fill="#43494f" stroke="#43494f"></path><path d="M408 405L511 339L415 322Z" fill="#50555a" stroke="#50555a"></path><path d="M291 402L308 487L408 405Z" fill="#5e6266" stroke="#5e6266"></path><path d="M408 405L537 396L511 339Z" fill="#50555a" stroke="#50555a"></path><path d="M466 200L365 213L415 322Z" fill="#43494f" stroke="#43494f"></path><path d="M415 322L365 213L332 338Z" fill="#43494f" stroke="#43494f"></path><path d="M161 313L169 423L291 402Z" fill="#363d44" stroke="#363d44"></path><path d="M386 525L490 470L408 405Z" fill="#898989" stroke="#898989"></path><path d="M490 470L537 396L408 405Z" fill="#6c6f71" stroke="#6c6f71"></path><path d="M308 487L386 525L408 405Z" fill="#43494f" stroke="#43494f"></path><path d="M365 213L329 193L332 338Z" fill="#29313a" stroke="#29313a"></path><path d="M604 292L466 200L511 339Z" fill="#50555a" stroke="#50555a"></path><path d="M511 339L466 200L415 322Z" fill="#50555a" stroke="#50555a"></path><path d="M365 213L381 135L329 193Z" fill="#43494f" stroke="#43494f"></path><path d="M638 473L567 361L537 396Z" fill="#898989" stroke="#898989"></path><path d="M537 396L567 361L511 339Z" fill="#5e6266" stroke="#5e6266"></path><path d="M161 313L291 402L332 338Z" fill="#101b25" stroke="#101b25"></path><path d="M291 402L169 423L308 487Z" fill="#00101c" stroke="#00101c"></path><path d="M308 487L380 600L386 525Z" fill="#00101c" stroke="#00101c"></path><path d="M329 193L161 313L332 338Z" fill="#29313a" stroke="#29313a"></path><path d="M466 200L381 135L365 213Z" fill="#6c6f71" stroke="#6c6f71"></path><path d="M329 193L184 176L161 313Z" fill="#7a7c7d" stroke="#7a7c7d"></path><path d="M567 361L604 292L511 339Z" fill="#898989" stroke="#898989"></path><path d="M466 200L514 118L381 135Z" fill="#50555a" stroke="#50555a"></path><path d="M262 600L380 600L308 487Z" fill="#43494f" stroke="#43494f"></path><path d="M386 525L503 600L490 470Z" fill="#363d44" stroke="#363d44"></path><path d="M381 135L312 127L329 193Z" fill="#101b25" stroke="#101b25"></path><path d="M169 423L191 532L308 487Z" fill="#7a7c7d" stroke="#7a7c7d"></path><path d="M191 532L262 600L308 487Z" fill="#363d44" stroke="#363d44"></path><path d="M312 127L184 176L329 193Z" fill="#50555a" stroke="#50555a"></path><path d="M380 600L503 600L386 525Z" fill="#1d262f" stroke="#1d262f"></path><path d="M490 470L638 473L537 396Z" fill="#5e6266" stroke="#5e6266"></path><path d="M567 361L668 293L604 292Z" fill="#101b25" stroke="#101b25"></path><path d="M630 183L514 118L466 200Z" fill="#1d262f" stroke="#1d262f"></path><path d="M381 135L377 0L312 127Z" fill="#29313a" stroke="#29313a"></path><path d="M503 600L638 473L490 470Z" fill="#5e6266" stroke="#5e6266"></path><path d="M161 313L99 413L169 423Z" fill="#6c6f71" stroke="#6c6f71"></path><path d="M169 423L107 536L191 532Z" fill="#1d262f" stroke="#1d262f"></path><path d="M99 308L99 413L161 313Z" fill="#1d262f" stroke="#1d262f"></path><path d="M90 203L99 308L161 313Z" fill="#5e6266" stroke="#5e6266"></path><path d="M684 414L668 293L567 361Z" fill="#101b25" stroke="#101b25"></path><path d="M604 292L630 183L466 200Z" fill="#7a7c7d" stroke="#7a7c7d"></path><path d="M107 536L189 600L191 532Z" fill="#1d262f" stroke="#1d262f"></path><path d="M191 532L189 600L262 600Z" fill="#7a7c7d" stroke="#7a7c7d"></path><path d="M682 209L630 183L604 292Z" fill="#00101c" stroke="#00101c"></path><path d="M638 473L684 414L567 361Z" fill="#1d262f" stroke="#1d262f"></path><path d="M630 183L578 114L514 118Z" fill="#363d44" stroke="#363d44"></path><path d="M230 0L161 121L312 127Z" fill="#5e6266" stroke="#5e6266"></path><path d="M99 413L107 536L169 423Z" fill="#898989" stroke="#898989"></path><path d="M312 127L161 121L184 176Z" fill="#7a7c7d" stroke="#7a7c7d"></path><path d="M184 176L90 203L161 313Z" fill="#29313a" stroke="#29313a"></path><path d="M377 0L381 135L471 0Z" fill="#50555a" stroke="#50555a"></path><path d="M161 121L90 203L184 176Z" fill="#363d44" stroke="#363d44"></path><path d="M99 308L0 312L99 413Z" fill="#00101c" stroke="#00101c"></path><path d="M630 183L699 86L578 114Z" fill="#898989" stroke="#898989"></path><path d="M668 293L682 209L604 292Z" fill="#00101c" stroke="#00101c"></path><path d="M827 302L682 209L668 293Z" fill="#6c6f71" stroke="#6c6f71"></path><path d="M637 600L706 489L638 473Z" fill="#1d262f" stroke="#1d262f"></path><path d="M638 473L706 489L684 414Z" fill="#29313a" stroke="#29313a"></path><path d="M684 414L800 418L668 293Z" fill="#898989" stroke="#898989"></path><path d="M503 600L637 600L638 473Z" fill="#101b25" stroke="#101b25"></path><path d="M471 0L381 135L514 118Z" fill="#5e6266" stroke="#5e6266"></path><path d="M578 114L471 0L514 118Z" fill="#00101c" stroke="#00101c"></path><path d="M630 0L471 0L578 114Z" fill="#101b25" stroke="#101b25"></path><path d="M107 536L88 600L189 600Z" fill="#43494f" stroke="#43494f"></path><path d="M0 600L88 600L107 536Z" fill="#6c6f71" stroke="#6c6f71"></path><path d="M0 487L107 536L99 413Z" fill="#5e6266" stroke="#5e6266"></path><path d="M377 0L266 0L312 127Z" fill="#43494f" stroke="#43494f"></path><path d="M0 214L0 312L99 308Z" fill="#101b25" stroke="#101b25"></path><path d="M0 312L0 419L99 413Z" fill="#898989" stroke="#898989"></path><path d="M266 0L230 0L312 127Z" fill="#43494f" stroke="#43494f"></path><path d="M0 121L0 214L90 203Z" fill="#6c6f71" stroke="#6c6f71"></path><path d="M90 203L0 214L99 308Z" fill="#6c6f71" stroke="#6c6f71"></path><path d="M0 419L0 487L99 413Z" fill="#7a7c7d" stroke="#7a7c7d"></path><path d="M81 64L90 203L161 121Z" fill="#7a7c7d" stroke="#7a7c7d"></path><path d="M637 600L717 600L706 489Z" fill="#50555a" stroke="#50555a"></path><path d="M814 166L699 86L682 209Z" fill="#00101c" stroke="#00101c"></path><path d="M97 0L81 64L161 121Z" fill="#7a7c7d" stroke="#7a7c7d"></path><path d="M800 418L684 414L706 489Z" fill="#50555a" stroke="#50555a"></path><path d="M682 209L699 86L630 183Z" fill="#101b25" stroke="#101b25"></path><path d="M814 479L800 418L706 489Z" fill="#6c6f71" stroke="#6c6f71"></path><path d="M699 86L630 0L578 114Z" fill="#50555a" stroke="#50555a"></path><path d="M0 487L0 600L107 536Z" fill="#43494f" stroke="#43494f"></path><path d="M81 64L0 121L90 203Z" fill="#7a7c7d" stroke="#7a7c7d"></path><path d="M717 600L814 479L706 489Z" fill="#29313a" stroke="#29313a"></path><path d="M900 406L827 302L800 418Z" fill="#50555a" stroke="#50555a"></path><path d="M800 418L827 302L668 293Z" fill="#101b25" stroke="#101b25"></path><path d="M230 0L97 0L161 121Z" fill="#29313a" stroke="#29313a"></path><path d="M81 64L0 0L0 121Z" fill="#00101c" stroke="#00101c"></path><path d="M827 302L814 166L682 209Z" fill="#29313a" stroke="#29313a"></path><path d="M699 86L713 0L630 0Z" fill="#1d262f" stroke="#1d262f"></path><path d="M762 0L713 0L699 86Z" fill="#29313a" stroke="#29313a"></path><path d="M814 166L794 79L699 86Z" fill="#43494f" stroke="#43494f"></path><path d="M717 600L838 600L814 479Z" fill="#29313a" stroke="#29313a"></path><path d="M814 479L900 406L800 418Z" fill="#1d262f" stroke="#1d262f"></path><path d="M900 510L900 406L814 479Z" fill="#1d262f" stroke="#1d262f"></path><path d="M827 302L900 269L814 166Z" fill="#29313a" stroke="#29313a"></path><path d="M814 166L900 84L794 79Z" fill="#5e6266" stroke="#5e6266"></path><path d="M97 0L0 0L81 64Z" fill="#6c6f71" stroke="#6c6f71"></path><path d="M794 79L762 0L699 86Z" fill="#00101c" stroke="#00101c"></path><path d="M900 406L900 269L827 302Z" fill="#00101c" stroke="#00101c"></path><path d="M794 79L900 0L762 0Z" fill="#50555a" stroke="#50555a"></path><path d="M838 600L900 510L814 479Z" fill="#363d44" stroke="#363d44"></path><path d="M900 269L900 165L814 166Z" fill="#50555a" stroke="#50555a"></path><path d="M838 600L900 600L900 510Z" fill="#898989" stroke="#898989"></path><path d="M900 165L900 84L814 166Z" fill="#6c6f71" stroke="#6c6f71"></path><path d="M900 84L900 0L794 79Z" fill="#898989" stroke="#898989"></path></g></svg>