<svg id="visual" viewBox="0 0 900 600" width="900" height="600" xmlns="http://www.w3.org/2000/svg" xmlns:xlink="http://www.w3.org/1999/xlink" version="1.1"><rect x="0" y="0" width="900" height="600" fill="#001220"></rect><path d="M0 293L21.5 281C43 269 86 245 128.8 249.5C171.7 254 214.3 287 257.2 289.5C300 292 343 264 385.8 264.7C428.7 265.3 471.3 294.7 514.2 290C557 285.3 600 246.7 642.8 238.5C685.7 230.3 728.3 252.7 771.2 260.5C814 268.3 857 261.7 878.5 258.3L900 255L900 601L878.5 601C857 601 814 601 771.2 601C728.3 601 685.7 601 642.8 601C600 601 557 601 514.2 601C471.3 601 428.7 601 385.8 601C343 601 300 601 257.2 601C214.3 601 171.7 601 128.8 601C86 601 43 601 21.5 601L0 601Z" fill="#0066ff"></path><path d="M0 305L21.5 315.2C43 325.3 86 345.7 128.8 356.7C171.7 367.7 214.3 369.3 257.2 358.7C300 348 343 325 385.8 309C428.7 293 471.3 284 514.2 288.5C557 293 600 311 642.8 318.5C685.7 326 728.3 323 771.2 313.7C814 304.3 857 288.7 878.5 280.8L900 273L900 601L878.5 601C857 601 814 601 771.2 601C728.3 601 685.7 601 642.8 601C600 601 557 601 514.2 601C471.3 601 428.7 601 385.8 601C343 601 300 601 257.2 601C214.3 601 171.7 601 128.8 601C86 601 43 601 21.5 601L0 601Z" fill="#005fff"></path><path d="M0 321L21.5 315.5C43 310 86 299 128.8 306.5C171.7 314 214.3 340 257.2 344.2C300 348.3 343 330.7 385.8 330.5C428.7 330.3 471.3 347.7 514.2 353.3C557 359 600 353 642.8 358.8C685.7 364.7 728.3 382.3 771.2 378C814 373.7 857 347.3 878.5 334.2L900 321L900 601L878.5 601C857 601 814 601 771.2 601C728.3 601 685.7 601 642.8 601C600 601 557 601 514.2 601C471.3 601 428.7 601 385.8 601C343 601 300 601 257.2 601C214.3 601 171.7 601 128.8 601C86 601 43 601 21.5 601L0 601Z" fill="#0058ff"></path><path d="M0 382L21.5 389.2C43 396.3 86 410.7 128.8 419.7C171.7 428.7 214.3 432.3 257.2 420.8C300 409.3 343 382.7 385.8 365.5C428.7 348.3 471.3 340.7 514.2 346.8C557 353 600 373 642.8 378.2C685.7 383.3 728.3 373.7 771.2 379.7C814 385.7 857 407.3 878.5 418.2L900 429L900 601L878.5 601C857 601 814 601 771.2 601C728.3 601 685.7 601 642.8 601C600 601 557 601 514.2 601C471.3 601 428.7 601 385.8 601C343 601 300 601 257.2 601C214.3 601 171.7 601 128.8 601C86 601 43 601 21.5 601L0 601Z" fill="#0050ff"></path><path d="M0 382L21.5 387C43 392 86 402 128.8 401.7C171.7 401.3 214.3 390.7 257.2 391.7C300 392.7 343 405.3 385.8 405.3C428.7 405.3 471.3 392.7 514.2 401.2C557 409.7 600 439.3 642.8 447.5C685.7 455.7 728.3 442.3 771.2 439.2C814 436 857 443 878.5 446.5L900 450L900 601L878.5 601C857 601 814 601 771.2 601C728.3 601 685.7 601 642.8 601C600 601 557 601 514.2 601C471.3 601 428.7 601 385.8 601C343 601 300 601 257.2 601C214.3 601 171.7 601 128.8 601C86 601 43 601 21.5 601L0 601Z" fill="#0248ff"></path><path d="M0 429L21.5 438C43 447 86 465 128.8 466C171.7 467 214.3 451 257.2 453.5C300 456 343 477 385.8 481.7C428.7 486.3 471.3 474.7 514.2 466.2C557 457.7 600 452.3 642.8 455.8C685.7 459.3 728.3 471.7 771.2 472.8C814 474 857 464 878.5 459L900 454L900 601L878.5 601C857 601 814 601 771.2 601C728.3 601 685.7 601 642.8 601C600 601 557 601 514.2 601C471.3 601 428.7 601 385.8 601C343 601 300 601 257.2 601C214.3 601 171.7 601 128.8 601C86 601 43 601 21.5 601L0 601Z" fill="#0c3eff"></path><path d="M0 492L21.5 497C43 502 86 512 128.8 509C171.7 506 214.3 490 257.2 492.2C300 494.3 343 514.7 385.8 522.3C428.7 530 471.3 525 514.2 525C557 525 600 530 642.8 523.8C685.7 517.7 728.3 500.3 771.2 494.2C814 488 857 493 878.5 495.5L900 498L900 601L878.5 601C857 601 814 601 771.2 601C728.3 601 685.7 601 642.8 601C600 601 557 601 514.2 601C471.3 601 428.7 601 385.8 601C343 601 300 601 257.2 601C214.3 601 171.7 601 128.8 601C86 601 43 601 21.5 601L0 601Z" fill="#1933ff"></path><path d="M0 549L21.5 545C43 541 86 533 128.8 532C171.7 531 214.3 537 257.2 540.2C300 543.3 343 543.7 385.8 542.7C428.7 541.7 471.3 539.3 514.2 541.3C557 543.3 600 549.7 642.8 547.2C685.7 544.7 728.3 533.3 771.2 533.3C814 533.3 857 544.7 878.5 550.3L900 556L900 601L878.5 601C857 601 814 601 771.2 601C728.3 601 685.7 601 642.8 601C600 601 557 601 514.2 601C471.3 601 428.7 601 385.8 601C343 601 300 601 257.2 601C214.3 601 171.7 601 128.8 601C86 601 43 601 21.5 601L0 601Z" fill="#2424ff"></path></svg>